<?xml version="1.0" standalone="no"?>
<!DOCTYPE svg PUBLIC "-//W3C//DTD SVG 20010904//EN"
 "http://www.w3.org/TR/2001/REC-SVG-20010904/DTD/svg10.dtd">
<svg version="1.0" xmlns="http://www.w3.org/2000/svg"
 width="79.000000pt" height="79.000000pt" viewBox="0 0 79.000000 79.000000"
 preserveAspectRatio="xMidYMid meet">
<metadata>
Created by potrace 1.11, written by Peter Selinger 2001-2013
</metadata>
<g transform="translate(0.000000,79.000000) scale(0.100000,-0.100000)"
fill="#000000" stroke="none">
<path d="M0 435 l0 -335 60 0 c59 0 60 -1 61 -27 1 -16 1 -34 0 -41 -2 -10 66
-12 325 -11 194 0 321 5 313 10 -8 5 -9 9 -3 9 5 0 15 -5 22 -12 9 -9 12 -5
12 21 0 29 -2 32 -15 21 -13 -11 -18 -11 -28 0 -9 10 -9 11 1 6 7 -4 19 -3 27
4 16 14 18 102 2 112 -9 6 -9 8 1 8 7 0 12 13 12 30 0 17 -5 30 -12 30 -10 0
-10 2 0 9 15 9 13 52 -3 63 -6 5 -5 8 3 8 17 0 17 80 0 80 -10 0 -10 2 0 9 15
9 13 52 -3 63 -6 5 -5 8 3 8 7 0 12 15 12 40 0 25 -5 40 -12 40 -10 0 -10 2 0
9 15 9 13 52 -3 63 -6 5 -5 8 3 8 6 0 12 7 12 16 0 12 -10 15 -47 14 -74 -3
-73 -3 -73 40 l0 40 -335 0 -335 0 0 -335z m745 -284 c-9 -8 -36 -10 -30 -2 2
4 11 8 20 8 8 0 13 -3 10 -6z m-15 -25 c0 -2 -8 -10 -17 -17 -16 -13 -17 -12
-4 4 13 16 21 21 21 13z m-550 -52 c0 -8 -19 -13 -24 -6 -3 5 1 9 9 9 8 0 15
-2 15 -3z m470 2 c0 -2 -7 -7 -16 -10 -8 -3 -12 -2 -9 4 6 10 25 14 25 6z"/>
</g>
</svg>
